<svg xmlns="http://www.w3.org/2000/svg" width="196" height="158" viewBox="0 0 196 158">
  <g fill="#FFF" fill-rule="evenodd" transform="translate(-11)">
    <path d="M22.4904517,0 C22.4904517,0 44.8549785,24.2509989 44.8549785,54.1214285 C44.8549785,83.991858 22.4904517,108.242857 22.4904517,108.242857 C22.4904517,108.242857 0.125924794,83.991858 0.125924794,54.1214285 C0.125924794,24.2509989 22.4904517,0 22.4904517,0 Z" opacity=".5" transform="translate(86.448)"/>
    <path d="M22.6340097,0.17010129 C22.6340097,0.17010129 44.9985365,24.4211002 44.9985365,54.2915298 C44.9985365,84.1619593 22.6340097,108.412958 22.6340097,108.412958 C22.6340097,108.412958 0.269482812,84.1619593 0.269482812,54.2915298 C0.269482812,24.4211002 22.6340097,0.17010129 22.6340097,0.17010129 Z" opacity=".25" transform="rotate(30 65.617 270.797)"/>
    <path d="M22.6340097,0.17010129 C22.6340097,0.17010129 44.9985365,24.4211002 44.9985365,54.2915298 C44.9985365,84.1619593 22.6340097,108.412958 22.6340097,108.412958 C22.6340097,108.412958 0.269482812,84.1619593 0.269482812,54.2915298 C0.269482812,24.4211002 22.6340097,0.17010129 22.6340097,0.17010129 Z" opacity=".25" transform="rotate(-30 66.099 -51.833)"/>
    <path d="M22.3848585,0.969630745 C22.3848585,0.969630745 44.7493853,25.2206297 44.7493853,55.0910592 C44.7493853,84.9614887 22.3848585,109.212488 22.3848585,109.212488 C22.3848585,109.212488 0.0203316016,84.9614887 0.0203316016,55.0910592 C0.0203316016,25.2206297 22.3848585,0.969630745 22.3848585,0.969630745 Z" opacity=".5" transform="rotate(64 66.864 177.563)"/>
    <path d="M22.3848585,0.969630745 C22.3848585,0.969630745 44.7493853,25.2206297 44.7493853,55.0910592 C44.7493853,84.9614887 22.3848585,109.212488 22.3848585,109.212488 C22.3848585,109.212488 0.0203316016,84.9614887 0.0203316016,55.0910592 C0.0203316016,25.2206297 22.3848585,0.969630745 22.3848585,0.969630745 Z" opacity=".5" transform="scale(-1 1) rotate(64 -41.716 3.798)"/>
    <text font-family="AvenirNext-Regular, Avenir Next" font-size="32">
      <tspan x="34.232" y="157">hereNOW</tspan>
    </text>
  </g>
</svg>
